<svg width="710" height="450" viewBox="0 0 710 450" fill="none" xmlns="http://www.w3.org/2000/svg">
<line x1="404" y1="152.5" x2="104" y2="152.5" stroke="black" stroke-width="5"/>
<line x1="404.5" y1="150" x2="404.5" y2="305" stroke="black" stroke-width="5"/>
<line x1="103.5" y1="-2.23396e-10" x2="103.5" y2="155" stroke="black" stroke-width="5"/>
<line x1="709" y1="302.5" x2="404" y2="302.5" stroke="black" stroke-width="5"/>
<line x1="707.5" y1="300" x2="707.5" y2="450" stroke="black" stroke-width="5"/>
<line x1="83.5" y1="109" x2="83.5" y2="174" stroke="black"/>
<line x1="1.33988" y1="97.6333" x2="83.3399" y2="173.633" stroke="black"/>
<line x1="83.4808" y1="173.863" x2="111.481" y2="271.863" stroke="black"/>
<line x1="110.93" y1="271.643" x2="289.911" y2="246.505" stroke="black"/>
<line x1="83.1663" y1="173.528" x2="290.166" y2="246.528" stroke="black"/>
<line x1="289.914" y1="246.507" x2="392.914" y2="228.507" stroke="black"/>
<line x1="392.809" y1="229.462" x2="266.809" y2="177.462" stroke="black"/>
<line x1="289.525" y1="247.156" x2="266.525" y2="177.156" stroke="black"/>
<line x1="267.26" y1="177.427" x2="111.26" y2="272.427" stroke="black"/>
<line x1="290.361" y1="246.654" x2="337.361" y2="295.654" stroke="black"/>
<line x1="392.389" y1="228.314" x2="337.389" y2="296.314" stroke="black"/>
<line x1="391.499" y1="227.964" x2="398.499" y2="325.964" stroke="black"/>
<line x1="338.224" y1="295.553" x2="398.224" y2="325.553" stroke="black"/>
<line x1="82.9335" y1="109.496" x2="0.933519" y2="98.4956" stroke="black"/>
<line x1="337.338" y1="295.631" x2="457.338" y2="405.631" stroke="#00FF29"/>
<path d="M398.5 325.5L457.5 405.5" stroke="#00FF29"/>
</svg>
