<svg width="710" height="558" viewBox="0 0 710 558" fill="none" xmlns="http://www.w3.org/2000/svg">
<line x1="404" y1="152.5" x2="104" y2="152.5" stroke="black" stroke-width="5"/>
<line x1="404.5" y1="150" x2="404.5" y2="305" stroke="black" stroke-width="5"/>
<line x1="103.5" y1="-2.23396e-10" x2="103.5" y2="155" stroke="black" stroke-width="5"/>
<line x1="709" y1="302.5" x2="404" y2="302.5" stroke="black" stroke-width="5"/>
<line x1="707.5" y1="300" x2="707.5" y2="450" stroke="black" stroke-width="5"/>
<line x1="83.5" y1="109" x2="83.5" y2="174" stroke="black"/>
<line x1="1.33988" y1="97.6333" x2="83.3399" y2="173.633" stroke="black"/>
<line x1="83.4808" y1="173.863" x2="111.481" y2="271.863" stroke="black"/>
<line x1="110.93" y1="271.643" x2="289.911" y2="246.505" stroke="black"/>
<line x1="83.1663" y1="173.528" x2="290.166" y2="246.528" stroke="black"/>
<line x1="289.914" y1="246.507" x2="392.914" y2="228.507" stroke="black"/>
<line x1="392.809" y1="229.462" x2="266.809" y2="177.462" stroke="black"/>
<line x1="289.525" y1="247.156" x2="266.525" y2="177.156" stroke="black"/>
<line x1="267.26" y1="177.427" x2="111.26" y2="272.427" stroke="black"/>
<line x1="290.361" y1="246.654" x2="337.361" y2="295.654" stroke="black"/>
<line x1="392.389" y1="228.314" x2="337.389" y2="296.314" stroke="black"/>
<line x1="391.499" y1="227.964" x2="398.499" y2="325.964" stroke="black"/>
<line x1="338.224" y1="295.553" x2="398.224" y2="325.553" stroke="black"/>
<line x1="82.9335" y1="109.496" x2="0.933519" y2="98.4956" stroke="black"/>
<line x1="337.338" y1="295.631" x2="457.338" y2="405.631" stroke="black"/>
<path d="M398.5 325.5L457.5 405.5" stroke="black"/>
<line x1="522.864" y1="360.481" x2="398.864" y2="325.481" stroke="black"/>
<line x1="456.714" y1="405.59" x2="522.714" y2="359.59" stroke="black"/>
<line x1="399.086" y1="325.507" x2="508.086" y2="344.507" stroke="black"/>
<line x1="522.635" y1="360.342" x2="507.635" y2="344.342" stroke="black"/>
<line x1="614.066" y1="384.496" x2="457.066" y2="405.496" stroke="black"/>
<line x1="522.126" y1="360.516" x2="614.126" y2="384.516" stroke="black"/>
<line x1="612.776" y1="384.553" x2="650.776" y2="365.553" stroke="black"/>
<line x1="611.5" y1="486.99" x2="613.481" y2="384.99" stroke="black"/>
<line x1="457.233" y1="405.557" x2="611.233" y2="486.557" stroke="black"/>
<line x1="678.639" y1="557.346" x2="610.639" y2="486.346" stroke="black"/>
<line x1="613.468" y1="384.823" x2="678.468" y2="556.823" stroke="black"/>
<line x1="678.505" y1="557.072" x2="650.647" y2="365.051" stroke="black"/>
</svg>
