<svg width="466" height="334" viewBox="0 0 466 334" fill="none" xmlns="http://www.w3.org/2000/svg">
<line x1="370.834" y1="86.699" x2="156.834" y2="317.699" stroke="black" stroke-width="5"/>
<line x1="309.5" y1="1" x2="309.5" y2="316" stroke="black" stroke-width="5"/>
<line x1="10.0467" y1="106.73" x2="459.047" y2="313.73" stroke="black" stroke-width="5"/>
<path d="M24 83C199 155 287 218 287 1" stroke="black"/>
<path d="M1 134C102 181 209 225 139 302" stroke="black"/>
<path d="M388 104C327 171 354 239 465 293" stroke="black"/>
<path d="M327.057 1C326.391 27 331.257 77.6 356.057 72" stroke="black"/>
<path d="M179 332C224 292 269 245 289 316" stroke="black"/>
<path d="M336 315C342.4 298.2 412.667 320 447 333" stroke="black"/>
</svg>
