<svg width="308" height="228" viewBox="0 0 308 228" fill="none" xmlns="http://www.w3.org/2000/svg">
<line x1="31.4078" y1="40.6728" x2="12.4078" y2="108.673" stroke="black" stroke-width="5"/>
<line x1="77.6203" y1="1.90385" x2="30.6203" y2="41.9038" stroke="black" stroke-width="5"/>
<line x1="12.4785" y1="108.327" x2="5.47848" y2="161.327" stroke="black" stroke-width="5"/>
<line x1="5.49742" y1="161.114" x2="2.49742" y2="227.114" stroke="black" stroke-width="5"/>
<line x1="122.389" y1="39.2623" x2="143.389" y2="107.262" stroke="black" stroke-width="5"/>
<line x1="74.5321" y1="2.02445" x2="123.532" y2="40.0244" stroke="black" stroke-width="5"/>
<line x1="151.497" y1="160.886" x2="154.497" y2="226.886" stroke="black" stroke-width="5"/>
<line x1="143.475" y1="106.646" x2="151.475" y2="162.646" stroke="black" stroke-width="5"/>
<line x1="182.408" y1="40.6728" x2="163.408" y2="108.673" stroke="black" stroke-width="5"/>
<line x1="228.62" y1="1.90385" x2="181.62" y2="41.9038" stroke="black" stroke-width="5"/>
<line x1="163.478" y1="108.327" x2="156.478" y2="161.327" stroke="black" stroke-width="5"/>
<line x1="156.497" y1="161.114" x2="153.497" y2="227.114" stroke="black" stroke-width="5"/>
<line x1="273.389" y1="39.2623" x2="294.389" y2="107.262" stroke="black" stroke-width="5"/>
<line x1="225.532" y1="2.02445" x2="274.532" y2="40.0244" stroke="black" stroke-width="5"/>
<line x1="302.497" y1="160.886" x2="305.497" y2="226.886" stroke="black" stroke-width="5"/>
<line x1="294.475" y1="106.646" x2="302.475" y2="162.646" stroke="black" stroke-width="5"/>
</svg>
