<svg width="353" height="350" viewBox="0 0 353 350" fill="none" xmlns="http://www.w3.org/2000/svg">
<circle cx="25" cy="25" r="25" fill="#C4C4C4"/>
<circle cx="25" cy="175" r="25" fill="#C4C4C4"/>
<circle cx="25" cy="100" r="25" fill="#C4C4C4"/>
<circle cx="25" cy="250" r="25" fill="#C4C4C4"/>
<circle cx="25" cy="325" r="25" fill="#C4C4C4"/>
<circle cx="101" cy="25" r="25" fill="#C4C4C4"/>
<circle cx="101" cy="175" r="25" fill="#C4C4C4"/>
<circle cx="101" cy="100" r="25" fill="#C4C4C4"/>
<circle cx="101" cy="250" r="25" fill="#C4C4C4"/>
<circle cx="101" cy="325" r="25" fill="#C4C4C4"/>
<circle cx="177" cy="25" r="25" fill="#C4C4C4"/>
<circle cx="177" cy="175" r="25" fill="#C4C4C4"/>
<circle cx="177" cy="100" r="25" fill="#C4C4C4"/>
<circle cx="177" cy="250" r="25" fill="#C4C4C4"/>
<circle cx="177" cy="325" r="25" fill="#C4C4C4"/>
<circle cx="253" cy="25" r="25" fill="#C4C4C4"/>
<circle cx="253" cy="175" r="25" fill="#C4C4C4"/>
<circle cx="253" cy="100" r="25" fill="#C4C4C4"/>
<circle cx="253" cy="250" r="25" fill="#C4C4C4"/>
<circle cx="253" cy="325" r="25" fill="#C4C4C4"/>
<circle cx="328" cy="25" r="25" fill="#C4C4C4"/>
<circle cx="328" cy="175" r="25" fill="#C4C4C4"/>
<circle cx="328" cy="100" r="25" fill="#C4C4C4"/>
<circle cx="328" cy="250" r="25" fill="#C4C4C4"/>
<circle cx="328" cy="325" r="25" fill="#C4C4C4"/>
</svg>
