<svg width="336" height="333" viewBox="0 0 336 333" fill="none" xmlns="http://www.w3.org/2000/svg">
<circle cx="15.5" cy="15.5" r="12.5" fill="#C4C4C4"/>
<circle cx="16.05" cy="166.05" r="16.05" fill="#C4C4C4"/>
<circle cx="16.25" cy="91.25" r="15.25" fill="#C4C4C4"/>
<circle cx="16.25" cy="241.25" r="15.25" fill="#C4C4C4"/>
<circle cx="15.5" cy="315.5" r="12.5" fill="#C4C4C4"/>
<circle cx="92.25" cy="16.25" r="15.25" fill="#C4C4C4"/>
<circle cx="91.525" cy="165.525" r="20.525" fill="#C4C4C4"/>
<circle cx="91.75" cy="90.75" r="18.75" fill="#C4C4C4"/>
<circle cx="91.75" cy="240.75" r="18.75" fill="#C4C4C4"/>
<circle cx="92.25" cy="316.25" r="15.25" fill="#C4C4C4"/>
<circle cx="168.05" cy="16.05" r="16.05" fill="#C4C4C4"/>
<circle cx="168" cy="166" r="25" fill="#FF0000"/>
<circle cx="167.525" cy="92.525" r="20.525" fill="#C4C4C4"/>
<circle cx="167.525" cy="240.525" r="20.525" fill="#C4C4C4"/>
<circle cx="168.05" cy="316.05" r="16.05" fill="#C4C4C4"/>
<circle cx="244.25" cy="16.25" r="15.25" fill="#C4C4C4"/>
<circle cx="243.525" cy="165.525" r="20.525" fill="#C4C4C4"/>
<circle cx="243.75" cy="90.75" r="18.75" fill="#C4C4C4"/>
<circle cx="243.75" cy="240.75" r="18.75" fill="#C4C4C4"/>
<circle cx="244.25" cy="316.25" r="15.25" fill="#C4C4C4"/>
<circle cx="318.5" cy="15.5" r="12.5" fill="#C4C4C4"/>
<circle cx="319.05" cy="166.05" r="16.05" fill="#C4C4C4"/>
<circle cx="319.25" cy="91.25" r="15.25" fill="#C4C4C4"/>
<circle cx="319.25" cy="241.25" r="15.25" fill="#C4C4C4"/>
<circle cx="318.5" cy="315.5" r="12.5" fill="#C4C4C4"/>
</svg>
